<svg xmlns="http://www.w3.org/2000/svg" width="128" height="128" viewBox="0 0 128 128">
  <g fill="none" fill-rule="evenodd">
    <path fill="#0C0C0C" fill-opacity=".8" d="M96,32 C100.401027,32 104.594544,32.8884516 108.410982,34.4957839 C109.211067,34.1755451 110.085033,34 111,34 L121,34 C124.865993,34 128,37.1340068 128,41 L128,43 C128,45.6521466 126.525065,47.9598037 124.350703,49.147464 C126.681635,53.5856959 128,58.6388876 128,64 C128,81.673112 113.673112,96 96,96 C81.089569,96 68.5609602,85.8022068 65.0083432,72.0007898 L62.9916568,72.0007898 C59.4390398,85.8022068 46.910431,96 32,96 C14.326888,96 0,81.673112 0,64 C0,58.6388876 1.31836488,53.5856959 3.64857787,49.1469416 C1.47493471,47.9598037 3.24794284e-16,45.6521466 0,43 L0,41 C-4.73447626e-16,37.1340068 3.13400675,34 7,34 L17,34 C17.914967,34 18.7889333,34.1755451 19.5900561,34.4947925 C23.4054558,32.8884516 27.5989734,32 32,32 C46.9107902,32 59.4396434,42.1982846 62.9919136,56.0002077 L65.0080864,56.0002077 C68.5603566,42.1982846 81.0892098,32 96,32 Z M32,48 C23.163444,48 16,55.163444 16,64 C16,72.836556 23.163444,80 32,80 C40.836556,80 48,72.836556 48,64 C48,55.163444 40.836556,48 32,48 Z M96,48 C87.163444,48 80,55.163444 80,64 C80,72.836556 87.163444,80 96,80 C104.836556,80 112,72.836556 112,64 C112,55.163444 104.836556,48 96,48 Z"/>
    <path fill="#0C0C0C" fill-opacity=".4" d="M32,48 C40.836556,48 48,55.163444 48,64 C48,72.836556 40.836556,80 32,80 C23.163444,80 16,72.836556 16,64 C16,55.163444 23.163444,48 32,48 Z M96,48 C104.836556,48 112,55.163444 112,64 C112,72.836556 104.836556,80 96,80 C87.163444,80 80,72.836556 80,64 C80,55.163444 87.163444,48 96,48 Z"/>
  </g>
</svg>
