<svg xmlns="http://www.w3.org/2000/svg" width="128" height="128" viewBox="0 0 128 128">
  <g fill="none" fill-opacity=".8" fill-rule="evenodd">
    <path fill="#0C0C0C" d="M96,8 C100.401027,8 104.594544,8.88845164 108.410982,10.4957839 C109.211067,10.1755451 110.085033,10 111,10 L121,10 C124.865993,10 128,13.1340068 128,17 L128,19 C128,21.6521466 126.525065,23.9598037 124.350703,25.147464 C126.681635,29.5856959 128,34.6388876 128,40 C128,57.673112 113.673112,72 96,72 C81.089569,72 68.5609602,61.8022068 65.0083432,48.0007898 L62.9916568,48.0007898 C59.4390398,61.8022068 46.910431,72 32,72 C14.326888,72 0,57.673112 0,40 C0,34.6388876 1.31836488,29.5856959 3.64857787,25.1469416 C1.47493471,23.9598037 3.24794284e-16,21.6521466 0,19 L0,17 C-4.73447626e-16,13.1340068 3.13400675,10 7,10 L17,10 C17.914967,10 18.7889333,10.1755451 19.5900561,10.4947925 C23.4054558,8.88845164 27.5989734,8 32,8 C46.9107902,8 59.4396434,18.1982846 62.9919136,32.0002077 L65.0080864,32.0002077 C68.5603566,18.1982846 81.0892098,8 96,8 Z M32,24 C23.163444,24 16,31.163444 16,40 C16,48.836556 23.163444,56 32,56 C40.836556,56 48,48.836556 48,40 C48,31.163444 40.836556,24 32,24 Z M96,24 C87.163444,24 80,31.163444 80,40 C80,48.836556 87.163444,56 96,56 C104.836556,56 112,48.836556 112,40 C112,31.163444 104.836556,24 96,24 Z"/>
    <rect width="64" height="8" x="32" y="80" fill="#0C0C0C" rx="4"/>
    <rect width="64" height="8" x="32" y="96" fill="#0C0C0C" rx="4"/>
    <rect width="48" height="8" x="32" y="112" fill="#0C0C0C" rx="4"/>
  </g>
</svg>
